PathFileType	4	(X/Y/Z)	/Users/itak/Documents/Research/Walk-IL/dataset/trc/00125_00007.trc
DataRate	CameraRate	NumFrames	NumMarkers	Units	OrigDataRate	OrigDataStartFrame	OrigNumFrames
100.000000	100.000000	4	53	mm	100.000000	181	727
Frame#	Time	RPSI			LPSI			L3			STRN			T10			C7			CLAV			RBAK			LBAK			LSHO			LUPA			LAEL			LAOL			LWTS			LWPS			LFRA			LIFD			LHPS			LHTS			RSHO			RUPA			RAEL			RAOL			RWTS			RWPS			RFRA			RIFD			RHTS			RHPS			RBHD			LFHD			RFHD			LBHD			LHIP			RHIP			RASI			LASI			LKNE			LTHI			LANK			LTIP			LTOE			LMT1			LMT5			LHEE			RKNE			RTHI			RANK			RTIP			RTOE			RMT1			RMT5			RHEE			
		X1	Y1	Z1	X2	Y2	Z2	X3	Y3	Z3	X4	Y4	Z4	X5	Y5	Z5	X6	Y6	Z6	X7	Y7	Z7	X8	Y8	Z8	X9	Y9	Z9	X10	Y10	Z10	X11	Y11	Z11	X12	Y12	Z12	X13	Y13	Z13	X14	Y14	Z14	X15	Y15	Z15	X16	Y16	Z16	X17	Y17	Z17	X18	Y18	Z18	X19	Y19	Z19	X20	Y20	Z20	X21	Y21	Z21	X22	Y22	Z22	X23	Y23	Z23	X24	Y24	Z24	X25	Y25	Z25	X26	Y26	Z26	X27	Y27	Z27	X28	Y28	Z28	X29	Y29	Z29	X30	Y30	Z30	X31	Y31	Z31	X32	Y32	Z32	X33	Y33	Z33	X34	Y34	Z34	X35	Y35	Z35	X36	Y36	Z36	X37	Y37	Z37	X38	Y38	Z38	X39	Y39	Z39	X40	Y40	Z40	X41	Y41	Z41	X42	Y42	Z42	X43	Y43	Z43	X44	Y44	Z44	X45	Y45	Z45	X46	Y46	Z46	X47	Y47	Z47	X48	Y48	Z48	X49	Y49	Z49	X50	Y50	Z50	X51	Y51	Z51	X52	Y52	Z52	X53	Y53	Z53	

182	1.81	756.6043701171875	1091.359619140625	908.0555419921875	644.1731567382812	1089.371826171875	828.8242797851562	691.2149658203125	1124.093383789062	867.9611206054688	816.8128051757812	1325.67919921875	689.9376831054688	663.5633544921875	1272.820434570312	896.30078125	660.12451171875	1563.66943359375	853.496337890625	787.3246459960938	1460.305908203125	714.9461669921875	707.1719360351562	1384.217529296875	951.205810546875	576.0301513671875	1537.283813476562	795.6077270507812	578.42822265625	1521.502807617188	687.160888671875	523.9480590820312	1386.510009765625	652.3550415039062	550.89697265625	1173.422241210938	595.8671264648438	553.764404296875	1145.316284179688	681.135009765625	720.63671875	977.5609130859375	497.3895568847656	658.588134765625	919.2593994140625	526.3067626953125	589.5435180664062	1069.937377929688	557.075927734375	808.044189453125	808.5701904296875	455.4627685546875	702.1699829101562	862.7734985351562	487.7590026855469	752.3405151367188	902.3948364257812	456.5821228027344	838.6036376953125	1558.313598632812	919.6771850585938	880.8763427734375	1490.323974609375	976.78076171875	903.3745727539062	1201.675415039062	1024.37646484375	824.1314086914062	1190.797973632812	966.880615234375	1000.183288574219	954.3756103515625	927.2293090820312	975.0811767578125	942.87646484375	1004.837036132812	934.5812377929688	1129.51123046875	1022.614685058594	1008.152038574219	759.6792602539062	911.3096313476562	1028.881958007812	846.164794921875	917.1707153320312	1006.471496582031	842.9660034179688	987.5662841796875	747.8881225585938	1758.93359375	837.4885864257812	676.1027221679688	1773.831176757812	629.2025756835938	793.84326171875	1809.143676757812	671.5427856445312	622.359375	1727.917846679688	798.5559692382812	602.6333618164062	998.5059814453125	690.5482177734375	931.8556518554688	999.828125	864.8222045898438	926.2843627929688	1071.140869140625	768.8563842773438	701.37939453125	1061.4609375	625.6260375976562	691.7682495117188	494.6935729980469	770.3925170898438	643.8448486328125	639.0635986328125	738.0245971679688	576.6699829101562	44.3220329284668	984.5765991210938	590.3609619140625	266.1522521972656	877.2348022460938	806.7534790039062	33.94512176513672	919.6778564453125	749.7171020507812	40.65466690063477	988.7888793945312	673.8189697265625	43.07364654541016	902.1783447265625	546.8013305664062	54.6633186340332	1072.021484375	1010.474243164062	549.6891479492188	695.4002075195312	980.6700439453125	806.0457763671875	794.7471313476562	1094.6572265625	33.0007209777832	619.6634521484375	1048.105102539062	420.9111328125	681.0070190429688	1093.419555664062	135.0018157958984	412.2313842773438	1040.271728515625	101.4194946289062	446.7529296875	1143.8974609375	79.08511352539062	504.7532348632812	1032.526000976562	17.16826629638672	662.4048461914062	
183	1.82	764.8543090820312	1089.718383789062	900.6853637695312	651.2156372070312	1087.868530273438	823.0841064453125	698.8596801757812	1122.489501953125	861.4418334960938	822.046142578125	1323.978515625	681.4063110351562	671.417236328125	1271.114868164062	890.014404296875	667.4105224609375	1562.047241210938	847.162841796875	792.8243408203125	1458.582885742188	706.836669921875	715.8048095703125	1382.539916992188	944.2942504882812	582.5597534179688	1535.589721679688	790.42333984375	583.5439453125	1519.640258789062	681.8784790039062	528.5059814453125	1384.466552734375	648.1030883789062	554.628662109375	1171.110107421875	592.1574096679688	558.5413818359375	1143.525390625	677.4849243164062	722.3738403320312	973.9514770507812	492.9037475585938	660.3607788085938	916.1195068359375	522.8080444335938	592.4483642578125	1067.2880859375	553.5125122070312	808.6051635742188	804.3544921875	450.9565124511719	703.3844604492188	859.152587890625	484.1424865722656	753.3011474609375	898.411865234375	452.192138671875	846.8064575195312	1556.580200195312	910.9407348632812	889.821533203125	1488.564575195312	967.462646484375	913.4390258789062	1200.033203125	1014.914978027344	833.5294799804688	1188.911743164062	958.295654296875	1009.435913085938	952.8302001953125	916.7740478515625	985.311767578125	941.3419799804688	994.7073364257812	944.7452392578125	1127.908813476562	1012.808166503906	1017.771118164062	758.1732177734375	900.9617919921875	1038.316772460938	844.720947265625	906.46826171875	1016.786926269531	841.5223999023438	977.1416015625	754.9407958984375	1757.30908203125	830.151123046875	680.1050415039062	1772.234985351562	622.9505004882812	798.4766235351562	1807.558837890625	663.5654907226562	628.9723510742188	1726.297973632812	793.0327758789062	607.8784790039062	996.6224365234375	685.3182373046875	939.373779296875	998.3388061523438	855.3636474609375	932.6005859375	1069.58837890625	759.3524780273438	705.9679565429688	1059.516479492188	618.9135131835938	696.5263671875	492.7308044433594	765.3141479492188	648.8564453125	637.3037719726562	733.15966796875	577.285888671875	45.67262268066406	985.4034423828125	592.9109497070312	266.2149353027344	875.5473022460938	806.97021484375	33.7135009765625	919.261962890625	750.1441040039062	40.8975715637207	988.4052734375	673.90576171875	43.23236083984375	902.3096923828125	548.0909423828125	57.44319534301758	1073.189575195312	1015.676208496094	548.5249633789062	684.7849731445312	987.6756591796875	804.8577880859375	784.6082153320312	1098.85302734375	32.05655670166016	608.343994140625	1052.972290039062	419.7805786132812	669.7721557617188	1093.114379882812	131.5759124755859	399.6701965332031	1040.694213867188	98.67008972167969	435.7893371582031	1145.486328125	76.4276123046875	491.820556640625	1037.391479492188	17.73073768615723	652.6708374023438	
184	1.83	773.0750122070312	1088.351318359375	893.15966796875	658.203125	1086.604736328125	817.2921142578125	706.548095703125	1121.126831054688	854.8285522460938	827.2876586914062	1322.510009765625	672.8046875	679.2796630859375	1269.638793945312	883.5322265625	674.6865844726562	1560.6826171875	840.6923828125	798.3133544921875	1457.103271484375	698.6333618164062	724.4154663085938	1381.091552734375	937.2496337890625	589.1168212890625	1534.138061523438	785.0850219726562	588.6919555664062	1517.994262695312	676.4618530273438	533.1245727539062	1382.6298828125	643.74365234375	558.3267211914062	1168.975463867188	588.4649047851562	563.2240600585938	1142.014404296875	673.8106689453125	723.7102661132812	970.156005859375	488.5907897949219	661.7303466796875	912.94287109375	519.6593627929688	595.1810913085938	1064.733642578125	550.0765380859375	808.4603881835938	799.7706298828125	446.7985229492188	704.0746459960938	855.3729248046875	480.9457397460938	753.697998046875	894.14501953125	448.069580078125	854.9605102539062	1555.072875976562	902.0928955078125	898.7140502929688	1487.0107421875	958.0249633789062	923.4762573242188	1198.583740234375	1005.183654785156	842.928955078125	1187.226928710938	949.4410400390625	1018.58349609375	951.41357421875	906.1744995117188	995.4176025390625	939.9857788085938	984.4224243164062	954.8636474609375	1126.499267578125	1002.747741699219	1027.202758789062	756.7802734375	890.579345703125	1047.586059570312	843.3790283203125	895.6880493164062	1026.94775390625	840.2410888671875	966.6226806640625	761.9906005859375	1755.949829101562	822.6567993164062	684.0789184570312	1770.859741210938	616.5949096679688	803.0615234375	1806.210571289062	655.447509765625	635.618896484375	1724.930541992188	787.4063110351562	613.2515258789062	994.8679809570312	679.9957885742188	946.81298828125	997.1982421875	845.8670043945312	938.9036254882812	1068.313842773438	749.8173828125	710.6559448242188	1057.759033203125	612.0462646484375	701.6246337890625	490.8756408691406	759.8506469726562	654.1730346679688	635.6659545898438	728.0140991210938	577.87890625	47.33939743041992	985.9861450195312	595.587158203125	266.5426940917969	873.537109375	807.1834106445312	33.51469039916992	918.8895874023438	750.5199584960938	41.26576232910156	987.94482421875	674.0033569335938	43.37192535400391	902.3228149414062	549.33203125	60.73027801513672	1074.047119140625	1020.784545898438	547.7711181640625	673.6807250976562	994.5861206054688	804.13623046875	774.0171508789062	1101.974609375	30.8942985534668	600.0426025390625	1057.510620117188	418.7899780273438	658.684814453125	1092.577392578125	125.9718170166016	389.4688415527344	1040.720825195312	94.20002746582031	427.1866760253906	1146.39453125	72.27730560302734	481.7897033691406	1041.031372070312	18.59396743774414	645.7437133789062	
185	1.84	781.1988525390625	1087.34033203125	885.5089111328125	665.113037109375	1085.583618164062	811.420654296875	714.2225952148438	1120.061401367188	848.1123046875	832.5136108398438	1321.3408203125	664.144775390625	687.117919921875	1268.465454101562	876.83740234375	681.9458618164062	1559.647094726562	834.082763671875	803.78369140625	1455.936645507812	690.3410034179688	732.978759765625	1379.94580078125	930.0755615234375	595.6873779296875	1533.00244140625	779.5849609375	593.8583374023438	1516.623413085938	670.9058837890625	537.8042602539062	1381.060913085938	639.276123046875	561.988037109375	1167.085571289062	584.79296875	567.8279418945312	1140.832153320312	670.134033203125	724.6314697265625	966.2368774414062	484.4743041992188	662.7020263671875	909.7989501953125	516.8997802734375	597.7415771484375	1062.3359375	546.79052734375	807.5836791992188	794.887451171875	443.0234375	704.2196655273438	851.5103149414062	478.2118225097656	753.4971923828125	889.6588745117188	444.2470092773438	863.0499877929688	1553.858154296875	893.1403198242188	907.5385131835938	1485.73193359375	948.4791870117188	933.4653930664062	1197.388305664062	995.1723022460938	852.3092651367188	1185.813110351562	940.3099365234375	1027.609985351562	950.1844482421875	895.428955078125	1005.37451171875	938.8704833984375	973.97900390625	964.9154663085938	1125.347045898438	992.423828125	1036.41796875	755.5555419921875	880.1737060546875	1056.670288085938	842.194091796875	884.8367919921875	1036.921997070312	839.1793823242188	956.0160522460938	769.0376586914062	1754.923828125	814.9929809570312	688.0218505859375	1769.7626953125	610.125244140625	807.5931396484375	1805.16064453125	647.1754150390625	642.290771484375	1723.878295898438	781.6664428710938	618.7575073242188	993.2786865234375	674.56494140625	954.1512451171875	996.5213012695312	836.3496704101562	945.1757202148438	1067.412109375	740.255126953125	715.4378051757812	1056.2548828125	605.0181884765625	707.1358642578125	489.1532897949219	753.9107055664062	659.8402709960938	634.1834716796875	722.5126342773438	578.4564819335938	49.39654159545898	986.2747802734375	598.4636840820312	267.2026062011719	871.1353759765625	807.3789672851562	33.35387802124023	918.5643920898438	750.8453369140625	41.78679275512695	987.4108276367188	674.1202392578125	43.48452377319336	902.2128295898438	550.5421752929688	64.6519775390625	1074.509643554688	1025.783447265625	547.5084838867188	662.1919555664062	1001.31640625	803.9393310546875	763.0493774414062	1104.199340820312	29.61778259277344	594.43505859375	1061.768188476562	418.0452270507812	647.7833862304688	1091.927124023438	118.6626281738281	381.4807739257812	1040.475830078125	88.41291809082031	420.7413940429688	1146.804565429688	66.98239135742188	474.4020080566406	1043.629760742188	19.66493606567383	641.2325439453125	
